<mxfile host="app.diagrams.net" agent="Mozilla/5.0 (Macintosh; Intel Mac OS X 10_15_7) AppleWebKit/537.36 (KHTML, like Gecko) Chrome/136.0.0.0 Safari/537.36" version="27.0.6">
  <diagram name="Pagina-1" id="4uZO9i8YP7X1FZvoxBEn">
    <mxGraphModel dx="1455" dy="991" grid="1" gridSize="10" guides="1" tooltips="1" connect="1" arrows="1" fold="1" page="1" pageScale="1" pageWidth="827" pageHeight="1169" math="0" shadow="0">
      <root>
        <mxCell id="0" />
        <mxCell id="1" parent="0" />
        <mxCell id="ai6ECV2WZNrA2al_3E-Q-9" value="" style="edgeStyle=orthogonalEdgeStyle;rounded=0;orthogonalLoop=1;jettySize=auto;html=1;endArrow=none;startFill=0;" edge="1" parent="1" source="ai6ECV2WZNrA2al_3E-Q-1" target="ai6ECV2WZNrA2al_3E-Q-6">
          <mxGeometry relative="1" as="geometry" />
        </mxCell>
        <mxCell id="ai6ECV2WZNrA2al_3E-Q-1" value="" style="ellipse;whiteSpace=wrap;html=1;aspect=fixed;fillColor=#F2FF3D;" vertex="1" parent="1">
          <mxGeometry x="410" y="620" width="14" height="14" as="geometry" />
        </mxCell>
        <mxCell id="ai6ECV2WZNrA2al_3E-Q-2" value="Id_Encounter&lt;div&gt;&amp;nbsp;+&lt;div&gt;Code_Careplan&amp;nbsp;&lt;/div&gt;&lt;div&gt;&lt;span style=&quot;background-color: transparent; color: light-dark(rgb(0, 0, 0), rgb(255, 255, 255));&quot;&gt;+&lt;/span&gt;&lt;/div&gt;&lt;div&gt;Code_Condition&lt;/div&gt;&lt;/div&gt;" style="text;html=1;align=center;verticalAlign=middle;resizable=0;points=[];autosize=1;strokeColor=none;fillColor=none;" vertex="1" parent="1">
          <mxGeometry x="362" y="530" width="110" height="90" as="geometry" />
        </mxCell>
        <mxCell id="ai6ECV2WZNrA2al_3E-Q-64" style="edgeStyle=orthogonalEdgeStyle;rounded=0;orthogonalLoop=1;jettySize=auto;html=1;exitX=1;exitY=1;exitDx=0;exitDy=0;entryX=0;entryY=0.5;entryDx=0;entryDy=0;curved=1;endArrow=classic;startFill=0;endFill=1;" edge="1" parent="1" source="ai6ECV2WZNrA2al_3E-Q-6" target="ai6ECV2WZNrA2al_3E-Q-38">
          <mxGeometry relative="1" as="geometry">
            <Array as="points">
              <mxPoint x="622" y="640" />
              <mxPoint x="680" y="640" />
            </Array>
          </mxGeometry>
        </mxCell>
        <mxCell id="ai6ECV2WZNrA2al_3E-Q-127" style="edgeStyle=orthogonalEdgeStyle;rounded=0;orthogonalLoop=1;jettySize=auto;html=1;exitX=0.5;exitY=1;exitDx=0;exitDy=0;entryX=0.5;entryY=0;entryDx=0;entryDy=0;endArrow=none;startFill=0;" edge="1" parent="1" source="ai6ECV2WZNrA2al_3E-Q-6" target="ai6ECV2WZNrA2al_3E-Q-40">
          <mxGeometry relative="1" as="geometry" />
        </mxCell>
        <mxCell id="ai6ECV2WZNrA2al_3E-Q-171" style="edgeStyle=orthogonalEdgeStyle;rounded=0;orthogonalLoop=1;jettySize=auto;html=1;exitX=0;exitY=0;exitDx=0;exitDy=0;entryX=0.5;entryY=1;entryDx=0;entryDy=0;endArrow=none;startFill=0;curved=1;" edge="1" parent="1" source="ai6ECV2WZNrA2al_3E-Q-6" target="ai6ECV2WZNrA2al_3E-Q-42">
          <mxGeometry relative="1" as="geometry">
            <mxPoint x="590" y="500" as="targetPoint" />
          </mxGeometry>
        </mxCell>
        <mxCell id="ai6ECV2WZNrA2al_3E-Q-173" style="edgeStyle=orthogonalEdgeStyle;rounded=0;orthogonalLoop=1;jettySize=auto;html=1;exitX=0.5;exitY=0;exitDx=0;exitDy=0;entryX=0.5;entryY=1;entryDx=0;entryDy=0;curved=1;endArrow=none;startFill=0;" edge="1" parent="1" source="ai6ECV2WZNrA2al_3E-Q-6" target="ai6ECV2WZNrA2al_3E-Q-37">
          <mxGeometry relative="1" as="geometry" />
        </mxCell>
        <mxCell id="ai6ECV2WZNrA2al_3E-Q-175" style="edgeStyle=orthogonalEdgeStyle;rounded=0;orthogonalLoop=1;jettySize=auto;html=1;exitX=1;exitY=0.5;exitDx=0;exitDy=0;entryX=0;entryY=0.5;entryDx=0;entryDy=0;curved=1;endArrow=none;startFill=0;" edge="1" parent="1" source="ai6ECV2WZNrA2al_3E-Q-6" target="ai6ECV2WZNrA2al_3E-Q-174">
          <mxGeometry relative="1" as="geometry">
            <Array as="points">
              <mxPoint x="750" y="627" />
              <mxPoint x="750" y="412" />
              <mxPoint x="850" y="412" />
            </Array>
          </mxGeometry>
        </mxCell>
        <mxCell id="ai6ECV2WZNrA2al_3E-Q-6" value="" style="ellipse;whiteSpace=wrap;html=1;aspect=fixed;fillColor=#FFFFFF;" vertex="1" parent="1">
          <mxGeometry x="610" y="620" width="14" height="14" as="geometry" />
        </mxCell>
        <mxCell id="ai6ECV2WZNrA2al_3E-Q-19" style="edgeStyle=orthogonalEdgeStyle;rounded=0;orthogonalLoop=1;jettySize=auto;html=1;exitX=0.5;exitY=0;exitDx=0;exitDy=0;entryX=1;entryY=1;entryDx=0;entryDy=0;endArrow=none;startFill=0;curved=1;" edge="1" parent="1" source="ai6ECV2WZNrA2al_3E-Q-11" target="ai6ECV2WZNrA2al_3E-Q-1">
          <mxGeometry relative="1" as="geometry" />
        </mxCell>
        <mxCell id="ai6ECV2WZNrA2al_3E-Q-11" value="" style="ellipse;whiteSpace=wrap;html=1;aspect=fixed;fillColor=#FFFFFF;" vertex="1" parent="1">
          <mxGeometry x="430" y="670" width="14" height="14" as="geometry" />
        </mxCell>
        <mxCell id="ai6ECV2WZNrA2al_3E-Q-18" style="edgeStyle=orthogonalEdgeStyle;rounded=0;orthogonalLoop=1;jettySize=auto;html=1;exitX=0.5;exitY=0;exitDx=0;exitDy=0;entryX=0;entryY=1;entryDx=0;entryDy=0;curved=1;endArrow=none;startFill=0;" edge="1" parent="1" source="ai6ECV2WZNrA2al_3E-Q-12" target="ai6ECV2WZNrA2al_3E-Q-1">
          <mxGeometry relative="1" as="geometry" />
        </mxCell>
        <mxCell id="ai6ECV2WZNrA2al_3E-Q-12" value="" style="ellipse;whiteSpace=wrap;html=1;aspect=fixed;fillColor=#FFFFFF;" vertex="1" parent="1">
          <mxGeometry x="390" y="670" width="14" height="14" as="geometry" />
        </mxCell>
        <mxCell id="ai6ECV2WZNrA2al_3E-Q-20" value="Start" style="text;html=1;align=center;verticalAlign=middle;resizable=0;points=[];autosize=1;strokeColor=none;fillColor=none;" vertex="1" parent="1">
          <mxGeometry x="365" y="678" width="50" height="30" as="geometry" />
        </mxCell>
        <mxCell id="ai6ECV2WZNrA2al_3E-Q-21" value="Stop" style="text;html=1;align=center;verticalAlign=middle;resizable=0;points=[];autosize=1;strokeColor=none;fillColor=none;" vertex="1" parent="1">
          <mxGeometry x="430" y="678" width="50" height="30" as="geometry" />
        </mxCell>
        <mxCell id="ai6ECV2WZNrA2al_3E-Q-24" style="edgeStyle=orthogonalEdgeStyle;rounded=0;orthogonalLoop=1;jettySize=auto;html=1;exitX=1;exitY=0.5;exitDx=0;exitDy=0;entryX=0;entryY=0.5;entryDx=0;entryDy=0;endArrow=none;startFill=0;" edge="1" parent="1" source="ai6ECV2WZNrA2al_3E-Q-22" target="ai6ECV2WZNrA2al_3E-Q-1">
          <mxGeometry relative="1" as="geometry" />
        </mxCell>
        <mxCell id="ai6ECV2WZNrA2al_3E-Q-22" value="" style="ellipse;whiteSpace=wrap;html=1;aspect=fixed;fillColor=#FFFFFF;" vertex="1" parent="1">
          <mxGeometry x="320" y="620" width="14" height="14" as="geometry" />
        </mxCell>
        <mxCell id="ai6ECV2WZNrA2al_3E-Q-25" value="" style="ellipse;whiteSpace=wrap;html=1;aspect=fixed;fillColor=#FFFFFF;" vertex="1" parent="1">
          <mxGeometry x="410" y="750" width="14" height="14" as="geometry" />
        </mxCell>
        <mxCell id="ai6ECV2WZNrA2al_3E-Q-26" style="edgeStyle=orthogonalEdgeStyle;rounded=0;orthogonalLoop=1;jettySize=auto;html=1;exitX=0.5;exitY=1;exitDx=0;exitDy=0;entryX=0.496;entryY=-0.153;entryDx=0;entryDy=0;entryPerimeter=0;endArrow=none;startFill=0;" edge="1" parent="1" source="ai6ECV2WZNrA2al_3E-Q-1">
          <mxGeometry relative="1" as="geometry">
            <mxPoint x="416.91" y="636.0699999999998" as="sourcePoint" />
            <mxPoint x="416.8540000000001" y="749.928" as="targetPoint" />
          </mxGeometry>
        </mxCell>
        <mxCell id="ai6ECV2WZNrA2al_3E-Q-27" value="Code_Careplan" style="text;html=1;align=center;verticalAlign=middle;resizable=0;points=[];autosize=1;strokeColor=none;fillColor=none;" vertex="1" parent="1">
          <mxGeometry x="424" y="742" width="110" height="30" as="geometry" />
        </mxCell>
        <mxCell id="ai6ECV2WZNrA2al_3E-Q-30" style="edgeStyle=orthogonalEdgeStyle;rounded=0;orthogonalLoop=1;jettySize=auto;html=1;exitX=0.5;exitY=0;exitDx=0;exitDy=0;entryX=0.5;entryY=1;entryDx=0;entryDy=0;endArrow=none;startFill=0;" edge="1" parent="1" source="ai6ECV2WZNrA2al_3E-Q-28" target="ai6ECV2WZNrA2al_3E-Q-25">
          <mxGeometry relative="1" as="geometry" />
        </mxCell>
        <mxCell id="ai6ECV2WZNrA2al_3E-Q-28" value="" style="ellipse;whiteSpace=wrap;html=1;aspect=fixed;fillColor=#FFFFFF;" vertex="1" parent="1">
          <mxGeometry x="410" y="790" width="14" height="14" as="geometry" />
        </mxCell>
        <mxCell id="ai6ECV2WZNrA2al_3E-Q-31" value="Description" style="text;html=1;align=center;verticalAlign=middle;resizable=0;points=[];autosize=1;strokeColor=none;fillColor=none;" vertex="1" parent="1">
          <mxGeometry x="424" y="782" width="80" height="30" as="geometry" />
        </mxCell>
        <mxCell id="ai6ECV2WZNrA2al_3E-Q-32" value="Code_Condition" style="text;html=1;align=center;verticalAlign=middle;resizable=0;points=[];autosize=1;strokeColor=none;fillColor=none;" vertex="1" parent="1">
          <mxGeometry x="272" y="634" width="110" height="30" as="geometry" />
        </mxCell>
        <mxCell id="ai6ECV2WZNrA2al_3E-Q-34" style="edgeStyle=orthogonalEdgeStyle;rounded=0;orthogonalLoop=1;jettySize=auto;html=1;entryX=0;entryY=0.5;entryDx=0;entryDy=0;endArrow=none;startFill=0;" edge="1" parent="1" source="ai6ECV2WZNrA2al_3E-Q-33" target="ai6ECV2WZNrA2al_3E-Q-22">
          <mxGeometry relative="1" as="geometry" />
        </mxCell>
        <mxCell id="ai6ECV2WZNrA2al_3E-Q-33" value="" style="ellipse;whiteSpace=wrap;html=1;aspect=fixed;fillColor=#FFFFFF;" vertex="1" parent="1">
          <mxGeometry x="250" y="620" width="14" height="14" as="geometry" />
        </mxCell>
        <mxCell id="ai6ECV2WZNrA2al_3E-Q-35" value="Description" style="text;html=1;align=center;verticalAlign=middle;resizable=0;points=[];autosize=1;strokeColor=none;fillColor=none;" vertex="1" parent="1">
          <mxGeometry x="217" y="590" width="80" height="30" as="geometry" />
        </mxCell>
        <mxCell id="ai6ECV2WZNrA2al_3E-Q-36" value="Id_Encounter" style="text;html=1;align=center;verticalAlign=middle;resizable=0;points=[];autosize=1;strokeColor=none;fillColor=none;" vertex="1" parent="1">
          <mxGeometry x="520" y="634" width="90" height="30" as="geometry" />
        </mxCell>
        <mxCell id="ai6ECV2WZNrA2al_3E-Q-37" value="" style="ellipse;whiteSpace=wrap;html=1;aspect=fixed;fillColor=#FFFFFF;" vertex="1" parent="1">
          <mxGeometry x="678" y="516" width="14" height="14" as="geometry" />
        </mxCell>
        <mxCell id="ai6ECV2WZNrA2al_3E-Q-68" style="edgeStyle=orthogonalEdgeStyle;rounded=0;orthogonalLoop=1;jettySize=auto;html=1;exitX=1;exitY=0.5;exitDx=0;exitDy=0;entryX=0;entryY=0.5;entryDx=0;entryDy=0;endArrow=classic;startFill=0;endFill=1;" edge="1" parent="1" source="ai6ECV2WZNrA2al_3E-Q-38" target="ai6ECV2WZNrA2al_3E-Q-67">
          <mxGeometry relative="1" as="geometry" />
        </mxCell>
        <mxCell id="ai6ECV2WZNrA2al_3E-Q-77" style="edgeStyle=orthogonalEdgeStyle;rounded=0;orthogonalLoop=1;jettySize=auto;html=1;exitX=0.5;exitY=1;exitDx=0;exitDy=0;entryX=0.5;entryY=0;entryDx=0;entryDy=0;curved=1;endArrow=none;startFill=0;" edge="1" parent="1" source="ai6ECV2WZNrA2al_3E-Q-38" target="ai6ECV2WZNrA2al_3E-Q-72">
          <mxGeometry relative="1" as="geometry" />
        </mxCell>
        <mxCell id="ai6ECV2WZNrA2al_3E-Q-87" style="edgeStyle=orthogonalEdgeStyle;rounded=0;orthogonalLoop=1;jettySize=auto;html=1;exitX=0;exitY=0;exitDx=0;exitDy=0;entryX=1;entryY=1;entryDx=0;entryDy=0;strokeColor=default;curved=1;endArrow=none;startFill=0;" edge="1" parent="1" source="ai6ECV2WZNrA2al_3E-Q-38" target="ai6ECV2WZNrA2al_3E-Q-70">
          <mxGeometry relative="1" as="geometry" />
        </mxCell>
        <mxCell id="ai6ECV2WZNrA2al_3E-Q-90" style="edgeStyle=orthogonalEdgeStyle;rounded=0;orthogonalLoop=1;jettySize=auto;html=1;exitX=0.5;exitY=0;exitDx=0;exitDy=0;entryX=0.5;entryY=1;entryDx=0;entryDy=0;curved=1;endArrow=none;startFill=0;" edge="1" parent="1" source="ai6ECV2WZNrA2al_3E-Q-38" target="ai6ECV2WZNrA2al_3E-Q-89">
          <mxGeometry relative="1" as="geometry" />
        </mxCell>
        <mxCell id="ai6ECV2WZNrA2al_3E-Q-93" style="edgeStyle=orthogonalEdgeStyle;rounded=0;orthogonalLoop=1;jettySize=auto;html=1;exitX=1;exitY=0;exitDx=0;exitDy=0;entryX=0.5;entryY=1;entryDx=0;entryDy=0;curved=1;endArrow=none;startFill=0;" edge="1" parent="1" source="ai6ECV2WZNrA2al_3E-Q-38" target="ai6ECV2WZNrA2al_3E-Q-39">
          <mxGeometry relative="1" as="geometry" />
        </mxCell>
        <mxCell id="ai6ECV2WZNrA2al_3E-Q-97" style="edgeStyle=orthogonalEdgeStyle;rounded=0;orthogonalLoop=1;jettySize=auto;html=1;exitX=0.933;exitY=0.302;exitDx=0;exitDy=0;entryX=0.5;entryY=1;entryDx=0;entryDy=0;curved=1;endArrow=none;startFill=0;exitPerimeter=0;" edge="1" parent="1" source="ai6ECV2WZNrA2al_3E-Q-38" target="ai6ECV2WZNrA2al_3E-Q-95">
          <mxGeometry relative="1" as="geometry" />
        </mxCell>
        <mxCell id="ai6ECV2WZNrA2al_3E-Q-99" style="edgeStyle=orthogonalEdgeStyle;rounded=0;orthogonalLoop=1;jettySize=auto;html=1;exitX=1.014;exitY=0.588;exitDx=0;exitDy=0;entryX=0;entryY=0.5;entryDx=0;entryDy=0;curved=1;endArrow=none;startFill=0;exitPerimeter=0;" edge="1" parent="1" source="ai6ECV2WZNrA2al_3E-Q-38" target="ai6ECV2WZNrA2al_3E-Q-96">
          <mxGeometry relative="1" as="geometry" />
        </mxCell>
        <mxCell id="ai6ECV2WZNrA2al_3E-Q-38" value="" style="ellipse;whiteSpace=wrap;html=1;aspect=fixed;fillColor=#FFFFFF;" vertex="1" parent="1">
          <mxGeometry x="783" y="634" width="14" height="14" as="geometry" />
        </mxCell>
        <mxCell id="ai6ECV2WZNrA2al_3E-Q-39" value="" style="ellipse;whiteSpace=wrap;html=1;aspect=fixed;fillColor=#FFFFFF;" vertex="1" parent="1">
          <mxGeometry x="820" y="598" width="14" height="14" as="geometry" />
        </mxCell>
        <mxCell id="ai6ECV2WZNrA2al_3E-Q-142" style="edgeStyle=orthogonalEdgeStyle;rounded=0;orthogonalLoop=1;jettySize=auto;html=1;exitX=0;exitY=0;exitDx=0;exitDy=0;entryX=0.5;entryY=0;entryDx=0;entryDy=0;curved=1;endArrow=none;startFill=0;" edge="1" parent="1" source="ai6ECV2WZNrA2al_3E-Q-40" target="ai6ECV2WZNrA2al_3E-Q-135">
          <mxGeometry relative="1" as="geometry" />
        </mxCell>
        <mxCell id="ai6ECV2WZNrA2al_3E-Q-144" style="edgeStyle=orthogonalEdgeStyle;rounded=0;orthogonalLoop=1;jettySize=auto;html=1;exitX=0;exitY=0.5;exitDx=0;exitDy=0;entryX=0.5;entryY=0;entryDx=0;entryDy=0;curved=1;endArrow=none;startFill=0;" edge="1" parent="1" source="ai6ECV2WZNrA2al_3E-Q-40" target="ai6ECV2WZNrA2al_3E-Q-131">
          <mxGeometry relative="1" as="geometry" />
        </mxCell>
        <mxCell id="ai6ECV2WZNrA2al_3E-Q-146" style="edgeStyle=orthogonalEdgeStyle;rounded=0;orthogonalLoop=1;jettySize=auto;html=1;exitX=0;exitY=1;exitDx=0;exitDy=0;entryX=0.5;entryY=0;entryDx=0;entryDy=0;curved=1;endArrow=none;startFill=0;" edge="1" parent="1" source="ai6ECV2WZNrA2al_3E-Q-40" target="ai6ECV2WZNrA2al_3E-Q-132">
          <mxGeometry relative="1" as="geometry" />
        </mxCell>
        <mxCell id="ai6ECV2WZNrA2al_3E-Q-154" style="edgeStyle=orthogonalEdgeStyle;rounded=0;orthogonalLoop=1;jettySize=auto;html=1;exitX=1;exitY=1;exitDx=0;exitDy=0;curved=1;endArrow=none;startFill=0;" edge="1" parent="1" source="ai6ECV2WZNrA2al_3E-Q-40" target="ai6ECV2WZNrA2al_3E-Q-153">
          <mxGeometry relative="1" as="geometry" />
        </mxCell>
        <mxCell id="ai6ECV2WZNrA2al_3E-Q-167" style="edgeStyle=orthogonalEdgeStyle;rounded=0;orthogonalLoop=1;jettySize=auto;html=1;exitX=0.971;exitY=0.342;exitDx=0;exitDy=0;entryX=0;entryY=0.5;entryDx=0;entryDy=0;curved=1;exitPerimeter=0;endArrow=none;startFill=0;" edge="1" parent="1" source="ai6ECV2WZNrA2al_3E-Q-40" target="ai6ECV2WZNrA2al_3E-Q-165">
          <mxGeometry relative="1" as="geometry" />
        </mxCell>
        <mxCell id="ai6ECV2WZNrA2al_3E-Q-169" style="edgeStyle=orthogonalEdgeStyle;rounded=0;orthogonalLoop=1;jettySize=auto;html=1;exitX=1;exitY=0;exitDx=0;exitDy=0;entryX=0;entryY=1;entryDx=0;entryDy=0;curved=1;" edge="1" parent="1" source="ai6ECV2WZNrA2al_3E-Q-40" target="ai6ECV2WZNrA2al_3E-Q-67">
          <mxGeometry relative="1" as="geometry">
            <mxPoint x="1070" y="720" as="targetPoint" />
            <Array as="points">
              <mxPoint x="940" y="882" />
              <mxPoint x="940" y="646" />
            </Array>
          </mxGeometry>
        </mxCell>
        <mxCell id="ai6ECV2WZNrA2al_3E-Q-170" style="edgeStyle=orthogonalEdgeStyle;rounded=0;orthogonalLoop=1;jettySize=auto;html=1;entryX=0;entryY=1;entryDx=0;entryDy=0;curved=1;exitX=0.675;exitY=0.002;exitDx=0;exitDy=0;exitPerimeter=0;" edge="1" parent="1" source="ai6ECV2WZNrA2al_3E-Q-40" target="ai6ECV2WZNrA2al_3E-Q-38">
          <mxGeometry relative="1" as="geometry">
            <Array as="points">
              <mxPoint x="619" y="870" />
              <mxPoint x="690" y="870" />
              <mxPoint x="690" y="646" />
            </Array>
          </mxGeometry>
        </mxCell>
        <mxCell id="ai6ECV2WZNrA2al_3E-Q-40" value="" style="ellipse;whiteSpace=wrap;html=1;aspect=fixed;fillColor=#FFFFFF;" vertex="1" parent="1">
          <mxGeometry x="610" y="880" width="14" height="14" as="geometry" />
        </mxCell>
        <mxCell id="ai6ECV2WZNrA2al_3E-Q-50" style="edgeStyle=orthogonalEdgeStyle;rounded=0;orthogonalLoop=1;jettySize=auto;html=1;exitX=1;exitY=0;exitDx=0;exitDy=0;curved=1;endArrow=none;startFill=0;" edge="1" parent="1" source="ai6ECV2WZNrA2al_3E-Q-42" target="ai6ECV2WZNrA2al_3E-Q-49">
          <mxGeometry relative="1" as="geometry" />
        </mxCell>
        <mxCell id="ai6ECV2WZNrA2al_3E-Q-42" value="" style="ellipse;whiteSpace=wrap;html=1;aspect=fixed;fillColor=#FFFFFF;" vertex="1" parent="1">
          <mxGeometry x="580" y="404" width="14" height="14" as="geometry" />
        </mxCell>
        <mxCell id="ai6ECV2WZNrA2al_3E-Q-44" value="Code_Type_Encounter&lt;div&gt;&lt;br&gt;&lt;/div&gt;" style="text;html=1;align=center;verticalAlign=middle;resizable=0;points=[];autosize=1;strokeColor=none;fillColor=none;" vertex="1" parent="1">
          <mxGeometry x="424" y="391" width="150" height="40" as="geometry" />
        </mxCell>
        <mxCell id="ai6ECV2WZNrA2al_3E-Q-52" style="edgeStyle=orthogonalEdgeStyle;rounded=0;orthogonalLoop=1;jettySize=auto;html=1;exitX=0.5;exitY=1;exitDx=0;exitDy=0;entryX=0;entryY=0;entryDx=0;entryDy=0;curved=1;endArrow=none;startFill=0;" edge="1" parent="1" source="ai6ECV2WZNrA2al_3E-Q-45" target="ai6ECV2WZNrA2al_3E-Q-42">
          <mxGeometry relative="1" as="geometry" />
        </mxCell>
        <mxCell id="ai6ECV2WZNrA2al_3E-Q-45" value="" style="ellipse;whiteSpace=wrap;html=1;aspect=fixed;fillColor=#FFFFFF;" vertex="1" parent="1">
          <mxGeometry x="524" y="324" width="14" height="14" as="geometry" />
        </mxCell>
        <mxCell id="ai6ECV2WZNrA2al_3E-Q-47" value="Description" style="text;html=1;align=center;verticalAlign=middle;resizable=0;points=[];autosize=1;strokeColor=none;fillColor=none;" vertex="1" parent="1">
          <mxGeometry x="444" y="324" width="80" height="30" as="geometry" />
        </mxCell>
        <mxCell id="ai6ECV2WZNrA2al_3E-Q-49" value="" style="ellipse;whiteSpace=wrap;html=1;aspect=fixed;fillColor=#FFFFFF;" vertex="1" parent="1">
          <mxGeometry x="640" y="324" width="14" height="14" as="geometry" />
        </mxCell>
        <mxCell id="ai6ECV2WZNrA2al_3E-Q-53" value="Base_Cost" style="text;html=1;align=center;verticalAlign=middle;resizable=0;points=[];autosize=1;strokeColor=none;fillColor=none;" vertex="1" parent="1">
          <mxGeometry x="650" y="304" width="80" height="30" as="geometry" />
        </mxCell>
        <mxCell id="ai6ECV2WZNrA2al_3E-Q-55" value="Id_Class" style="text;html=1;align=center;verticalAlign=middle;resizable=0;points=[];autosize=1;strokeColor=none;fillColor=none;" vertex="1" parent="1">
          <mxGeometry x="610" y="508" width="70" height="30" as="geometry" />
        </mxCell>
        <mxCell id="ai6ECV2WZNrA2al_3E-Q-59" style="edgeStyle=orthogonalEdgeStyle;rounded=0;orthogonalLoop=1;jettySize=auto;html=1;exitX=0.5;exitY=1;exitDx=0;exitDy=0;entryX=0.5;entryY=0;entryDx=0;entryDy=0;endArrow=none;startFill=0;" edge="1" parent="1" source="ai6ECV2WZNrA2al_3E-Q-56" target="ai6ECV2WZNrA2al_3E-Q-37">
          <mxGeometry relative="1" as="geometry" />
        </mxCell>
        <mxCell id="ai6ECV2WZNrA2al_3E-Q-56" value="" style="ellipse;whiteSpace=wrap;html=1;aspect=fixed;fillColor=#FFFFFF;" vertex="1" parent="1">
          <mxGeometry x="678" y="440" width="14" height="14" as="geometry" />
        </mxCell>
        <mxCell id="ai6ECV2WZNrA2al_3E-Q-60" value="Name" style="text;html=1;align=center;verticalAlign=middle;resizable=0;points=[];autosize=1;strokeColor=none;fillColor=none;" vertex="1" parent="1">
          <mxGeometry x="618" y="410" width="60" height="30" as="geometry" />
        </mxCell>
        <mxCell id="ai6ECV2WZNrA2al_3E-Q-65" value="Id_Organization" style="text;html=1;align=center;verticalAlign=middle;resizable=0;points=[];autosize=1;strokeColor=none;fillColor=none;" vertex="1" parent="1">
          <mxGeometry x="675" y="615" width="110" height="30" as="geometry" />
        </mxCell>
        <mxCell id="ai6ECV2WZNrA2al_3E-Q-112" style="edgeStyle=orthogonalEdgeStyle;rounded=0;orthogonalLoop=1;jettySize=auto;html=1;exitX=1;exitY=0.5;exitDx=0;exitDy=0;entryX=0;entryY=0.5;entryDx=0;entryDy=0;endArrow=none;startFill=0;" edge="1" parent="1" source="ai6ECV2WZNrA2al_3E-Q-67" target="ai6ECV2WZNrA2al_3E-Q-111">
          <mxGeometry relative="1" as="geometry" />
        </mxCell>
        <mxCell id="ai6ECV2WZNrA2al_3E-Q-67" value="" style="ellipse;whiteSpace=wrap;html=1;aspect=fixed;fillColor=#FFFFFF;" vertex="1" parent="1">
          <mxGeometry x="960" y="634" width="14" height="14" as="geometry" />
        </mxCell>
        <mxCell id="ai6ECV2WZNrA2al_3E-Q-70" value="" style="ellipse;whiteSpace=wrap;html=1;aspect=fixed;fillColor=#FFFFFF;" vertex="1" parent="1">
          <mxGeometry x="760" y="606" width="14" height="14" as="geometry" />
        </mxCell>
        <mxCell id="ai6ECV2WZNrA2al_3E-Q-71" value="" style="ellipse;whiteSpace=wrap;html=1;aspect=fixed;fillColor=#FFFFFF;" vertex="1" parent="1">
          <mxGeometry x="797" y="710" width="14" height="14" as="geometry" />
        </mxCell>
        <mxCell id="ai6ECV2WZNrA2al_3E-Q-72" value="" style="ellipse;whiteSpace=wrap;html=1;aspect=fixed;fillColor=#FFFFFF;" vertex="1" parent="1">
          <mxGeometry x="760" y="710" width="14" height="14" as="geometry" />
        </mxCell>
        <mxCell id="ai6ECV2WZNrA2al_3E-Q-73" value="" style="ellipse;whiteSpace=wrap;html=1;aspect=fixed;fillColor=#FFFFFF;" vertex="1" parent="1">
          <mxGeometry x="860" y="700" width="14" height="14" as="geometry" />
        </mxCell>
        <mxCell id="ai6ECV2WZNrA2al_3E-Q-78" value="Name" style="text;html=1;align=center;verticalAlign=middle;resizable=0;points=[];autosize=1;strokeColor=none;fillColor=none;" vertex="1" parent="1">
          <mxGeometry x="710" y="700" width="60" height="30" as="geometry" />
        </mxCell>
        <mxCell id="ai6ECV2WZNrA2al_3E-Q-80" value="Address" style="text;strokeColor=none;align=center;fillColor=none;html=1;verticalAlign=middle;whiteSpace=wrap;rounded=0;" vertex="1" parent="1">
          <mxGeometry x="774" y="714" width="60" height="30" as="geometry" />
        </mxCell>
        <mxCell id="ai6ECV2WZNrA2al_3E-Q-82" style="edgeStyle=orthogonalEdgeStyle;rounded=0;orthogonalLoop=1;jettySize=auto;html=1;exitX=1;exitY=1;exitDx=0;exitDy=0;entryX=0.5;entryY=0;entryDx=0;entryDy=0;curved=1;endArrow=none;startFill=0;" edge="1" parent="1" source="ai6ECV2WZNrA2al_3E-Q-38" target="ai6ECV2WZNrA2al_3E-Q-71">
          <mxGeometry relative="1" as="geometry">
            <mxPoint x="827" y="648" as="sourcePoint" />
            <mxPoint x="804" y="710" as="targetPoint" />
            <Array as="points">
              <mxPoint x="795" y="648" />
              <mxPoint x="805" y="648" />
              <mxPoint x="805" y="710" />
            </Array>
          </mxGeometry>
        </mxCell>
        <mxCell id="ai6ECV2WZNrA2al_3E-Q-83" style="edgeStyle=orthogonalEdgeStyle;rounded=0;orthogonalLoop=1;jettySize=auto;html=1;exitX=0.934;exitY=0.725;exitDx=0;exitDy=0;curved=1;endArrow=none;startFill=0;exitPerimeter=0;" edge="1" parent="1" source="ai6ECV2WZNrA2al_3E-Q-38" target="ai6ECV2WZNrA2al_3E-Q-73">
          <mxGeometry relative="1" as="geometry">
            <mxPoint x="805" y="656" as="sourcePoint" />
            <mxPoint x="814" y="720" as="targetPoint" />
            <Array as="points">
              <mxPoint x="810" y="644" />
              <mxPoint x="810" y="650" />
              <mxPoint x="820" y="650" />
              <mxPoint x="820" y="707" />
            </Array>
          </mxGeometry>
        </mxCell>
        <mxCell id="ai6ECV2WZNrA2al_3E-Q-84" value="Zip_Code" style="text;html=1;align=center;verticalAlign=middle;resizable=0;points=[];autosize=1;strokeColor=none;fillColor=none;" vertex="1" parent="1">
          <mxGeometry x="820" y="708" width="80" height="30" as="geometry" />
        </mxCell>
        <mxCell id="ai6ECV2WZNrA2al_3E-Q-88" value="Lat" style="text;html=1;align=center;verticalAlign=middle;resizable=0;points=[];autosize=1;strokeColor=none;fillColor=none;" vertex="1" parent="1">
          <mxGeometry x="757" y="585" width="40" height="30" as="geometry" />
        </mxCell>
        <mxCell id="ai6ECV2WZNrA2al_3E-Q-89" value="" style="ellipse;whiteSpace=wrap;html=1;aspect=fixed;fillColor=#FFFFFF;" vertex="1" parent="1">
          <mxGeometry x="796" y="598" width="14" height="14" as="geometry" />
        </mxCell>
        <mxCell id="ai6ECV2WZNrA2al_3E-Q-91" value="Lon" style="text;html=1;align=center;verticalAlign=middle;resizable=0;points=[];autosize=1;strokeColor=none;fillColor=none;" vertex="1" parent="1">
          <mxGeometry x="783" y="576" width="40" height="30" as="geometry" />
        </mxCell>
        <mxCell id="ai6ECV2WZNrA2al_3E-Q-94" value="Phone" style="text;html=1;align=center;verticalAlign=middle;resizable=0;points=[];autosize=1;strokeColor=none;fillColor=none;" vertex="1" parent="1">
          <mxGeometry x="814" y="576" width="60" height="30" as="geometry" />
        </mxCell>
        <mxCell id="ai6ECV2WZNrA2al_3E-Q-95" value="" style="ellipse;whiteSpace=wrap;html=1;aspect=fixed;fillColor=#FFFFFF;" vertex="1" parent="1">
          <mxGeometry x="860" y="600" width="14" height="14" as="geometry" />
        </mxCell>
        <mxCell id="ai6ECV2WZNrA2al_3E-Q-96" value="" style="ellipse;whiteSpace=wrap;html=1;aspect=fixed;fillColor=#FFFFFF;" vertex="1" parent="1">
          <mxGeometry x="860" y="656" width="14" height="14" as="geometry" />
        </mxCell>
        <mxCell id="ai6ECV2WZNrA2al_3E-Q-98" value="Revenue" style="text;html=1;align=center;verticalAlign=middle;resizable=0;points=[];autosize=1;strokeColor=none;fillColor=none;" vertex="1" parent="1">
          <mxGeometry x="860" y="582" width="70" height="30" as="geometry" />
        </mxCell>
        <mxCell id="ai6ECV2WZNrA2al_3E-Q-100" value="Utilization" style="text;html=1;align=center;verticalAlign=middle;resizable=0;points=[];autosize=1;strokeColor=none;fillColor=none;" vertex="1" parent="1">
          <mxGeometry x="830" y="662" width="80" height="30" as="geometry" />
        </mxCell>
        <mxCell id="ai6ECV2WZNrA2al_3E-Q-103" value="Id_City" style="text;html=1;align=center;verticalAlign=middle;resizable=0;points=[];autosize=1;strokeColor=none;fillColor=none;" vertex="1" parent="1">
          <mxGeometry x="960" y="640" width="60" height="30" as="geometry" />
        </mxCell>
        <mxCell id="ai6ECV2WZNrA2al_3E-Q-110" style="edgeStyle=orthogonalEdgeStyle;rounded=0;orthogonalLoop=1;jettySize=auto;html=1;entryX=0.5;entryY=1;entryDx=0;entryDy=0;endArrow=none;startFill=0;" edge="1" parent="1" source="ai6ECV2WZNrA2al_3E-Q-105" target="ai6ECV2WZNrA2al_3E-Q-67">
          <mxGeometry relative="1" as="geometry" />
        </mxCell>
        <mxCell id="ai6ECV2WZNrA2al_3E-Q-105" value="" style="ellipse;whiteSpace=wrap;html=1;aspect=fixed;fillColor=#FFFFFF;" vertex="1" parent="1">
          <mxGeometry x="960" y="670" width="14" height="14" as="geometry" />
        </mxCell>
        <mxCell id="ai6ECV2WZNrA2al_3E-Q-109" value="Name" style="text;html=1;align=center;verticalAlign=middle;resizable=0;points=[];autosize=1;strokeColor=none;fillColor=none;" vertex="1" parent="1">
          <mxGeometry x="937" y="678" width="60" height="30" as="geometry" />
        </mxCell>
        <mxCell id="ai6ECV2WZNrA2al_3E-Q-115" style="edgeStyle=orthogonalEdgeStyle;rounded=0;orthogonalLoop=1;jettySize=auto;html=1;exitX=0.5;exitY=1;exitDx=0;exitDy=0;entryX=0.5;entryY=0;entryDx=0;entryDy=0;endArrow=none;startFill=0;" edge="1" parent="1" source="ai6ECV2WZNrA2al_3E-Q-111" target="ai6ECV2WZNrA2al_3E-Q-114">
          <mxGeometry relative="1" as="geometry" />
        </mxCell>
        <mxCell id="ai6ECV2WZNrA2al_3E-Q-118" style="edgeStyle=orthogonalEdgeStyle;rounded=0;orthogonalLoop=1;jettySize=auto;html=1;exitX=1;exitY=0.5;exitDx=0;exitDy=0;entryX=0;entryY=0.5;entryDx=0;entryDy=0;endArrow=none;startFill=0;" edge="1" parent="1" source="ai6ECV2WZNrA2al_3E-Q-111" target="ai6ECV2WZNrA2al_3E-Q-117">
          <mxGeometry relative="1" as="geometry" />
        </mxCell>
        <mxCell id="ai6ECV2WZNrA2al_3E-Q-111" value="" style="ellipse;whiteSpace=wrap;html=1;aspect=fixed;fillColor=#FFFFFF;" vertex="1" parent="1">
          <mxGeometry x="1040" y="634" width="14" height="14" as="geometry" />
        </mxCell>
        <mxCell id="ai6ECV2WZNrA2al_3E-Q-113" value="Id_County" style="text;html=1;align=center;verticalAlign=middle;resizable=0;points=[];autosize=1;strokeColor=none;fillColor=none;" vertex="1" parent="1">
          <mxGeometry x="1007" y="606" width="80" height="30" as="geometry" />
        </mxCell>
        <mxCell id="ai6ECV2WZNrA2al_3E-Q-114" value="" style="ellipse;whiteSpace=wrap;html=1;aspect=fixed;fillColor=#FFFFFF;" vertex="1" parent="1">
          <mxGeometry x="1040" y="670" width="14" height="14" as="geometry" />
        </mxCell>
        <mxCell id="ai6ECV2WZNrA2al_3E-Q-116" value="Name" style="text;html=1;align=center;verticalAlign=middle;resizable=0;points=[];autosize=1;strokeColor=none;fillColor=none;" vertex="1" parent="1">
          <mxGeometry x="1017" y="680" width="60" height="30" as="geometry" />
        </mxCell>
        <mxCell id="ai6ECV2WZNrA2al_3E-Q-121" style="edgeStyle=orthogonalEdgeStyle;rounded=0;orthogonalLoop=1;jettySize=auto;html=1;exitX=0.5;exitY=1;exitDx=0;exitDy=0;entryX=0.5;entryY=0;entryDx=0;entryDy=0;endArrow=none;startFill=0;" edge="1" parent="1" source="ai6ECV2WZNrA2al_3E-Q-117" target="ai6ECV2WZNrA2al_3E-Q-120">
          <mxGeometry relative="1" as="geometry" />
        </mxCell>
        <mxCell id="ai6ECV2WZNrA2al_3E-Q-117" value="" style="ellipse;whiteSpace=wrap;html=1;aspect=fixed;fillColor=#FFFFFF;" vertex="1" parent="1">
          <mxGeometry x="1110" y="634" width="14" height="14" as="geometry" />
        </mxCell>
        <mxCell id="ai6ECV2WZNrA2al_3E-Q-119" value="Id_State" style="text;html=1;align=center;verticalAlign=middle;resizable=0;points=[];autosize=1;strokeColor=none;fillColor=none;" vertex="1" parent="1">
          <mxGeometry x="1082" y="606" width="70" height="30" as="geometry" />
        </mxCell>
        <mxCell id="ai6ECV2WZNrA2al_3E-Q-120" value="" style="ellipse;whiteSpace=wrap;html=1;aspect=fixed;fillColor=#FFFFFF;" vertex="1" parent="1">
          <mxGeometry x="1110" y="670" width="14" height="14" as="geometry" />
        </mxCell>
        <mxCell id="ai6ECV2WZNrA2al_3E-Q-122" value="Name" style="text;html=1;align=center;verticalAlign=middle;resizable=0;points=[];autosize=1;strokeColor=none;fillColor=none;" vertex="1" parent="1">
          <mxGeometry x="1087" y="678" width="60" height="30" as="geometry" />
        </mxCell>
        <mxCell id="ai6ECV2WZNrA2al_3E-Q-128" value="Id_Provider" style="text;html=1;align=center;verticalAlign=middle;resizable=0;points=[];autosize=1;strokeColor=none;fillColor=none;" vertex="1" parent="1">
          <mxGeometry x="534" y="850" width="80" height="30" as="geometry" />
        </mxCell>
        <mxCell id="ai6ECV2WZNrA2al_3E-Q-148" style="edgeStyle=orthogonalEdgeStyle;rounded=0;orthogonalLoop=1;jettySize=auto;html=1;exitX=0.5;exitY=0;exitDx=0;exitDy=0;entryX=0.5;entryY=1;entryDx=0;entryDy=0;curved=1;endArrow=none;startFill=0;" edge="1" parent="1" source="ai6ECV2WZNrA2al_3E-Q-130" target="ai6ECV2WZNrA2al_3E-Q-40">
          <mxGeometry relative="1" as="geometry" />
        </mxCell>
        <mxCell id="ai6ECV2WZNrA2al_3E-Q-130" value="" style="ellipse;whiteSpace=wrap;html=1;aspect=fixed;fillColor=#FFFFFF;" vertex="1" parent="1">
          <mxGeometry x="577" y="946" width="14" height="14" as="geometry" />
        </mxCell>
        <mxCell id="ai6ECV2WZNrA2al_3E-Q-131" value="" style="ellipse;whiteSpace=wrap;html=1;aspect=fixed;fillColor=#FFFFFF;" vertex="1" parent="1">
          <mxGeometry x="520" y="932" width="14" height="14" as="geometry" />
        </mxCell>
        <mxCell id="ai6ECV2WZNrA2al_3E-Q-132" value="" style="ellipse;whiteSpace=wrap;html=1;aspect=fixed;fillColor=#FFFFFF;" vertex="1" parent="1">
          <mxGeometry x="546" y="946" width="14" height="14" as="geometry" />
        </mxCell>
        <mxCell id="ai6ECV2WZNrA2al_3E-Q-135" value="" style="ellipse;whiteSpace=wrap;html=1;aspect=fixed;fillColor=#FFFFFF;" vertex="1" parent="1">
          <mxGeometry x="504" y="910" width="14" height="14" as="geometry" />
        </mxCell>
        <mxCell id="ai6ECV2WZNrA2al_3E-Q-143" value="First_Name" style="text;html=1;align=center;verticalAlign=middle;resizable=0;points=[];autosize=1;strokeColor=none;fillColor=none;" vertex="1" parent="1">
          <mxGeometry x="424" y="902" width="90" height="30" as="geometry" />
        </mxCell>
        <mxCell id="ai6ECV2WZNrA2al_3E-Q-145" value="Last_Name" style="text;html=1;align=center;verticalAlign=middle;resizable=0;points=[];autosize=1;strokeColor=none;fillColor=none;" vertex="1" parent="1">
          <mxGeometry x="444" y="924" width="80" height="30" as="geometry" />
        </mxCell>
        <mxCell id="ai6ECV2WZNrA2al_3E-Q-147" value="Gender" style="text;html=1;align=center;verticalAlign=middle;resizable=0;points=[];autosize=1;strokeColor=none;fillColor=none;" vertex="1" parent="1">
          <mxGeometry x="504" y="954" width="60" height="30" as="geometry" />
        </mxCell>
        <mxCell id="ai6ECV2WZNrA2al_3E-Q-149" value="Address" style="text;html=1;align=center;verticalAlign=middle;resizable=0;points=[];autosize=1;strokeColor=none;fillColor=none;" vertex="1" parent="1">
          <mxGeometry x="555" y="958" width="70" height="30" as="geometry" />
        </mxCell>
        <mxCell id="ai6ECV2WZNrA2al_3E-Q-151" value="Zip_Code" style="text;html=1;align=center;verticalAlign=middle;resizable=0;points=[];autosize=1;strokeColor=none;fillColor=none;" vertex="1" parent="1">
          <mxGeometry x="621" y="946" width="80" height="30" as="geometry" />
        </mxCell>
        <mxCell id="ai6ECV2WZNrA2al_3E-Q-153" value="" style="ellipse;whiteSpace=wrap;html=1;aspect=fixed;fillColor=#FFFFFF;" vertex="1" parent="1">
          <mxGeometry x="640" y="940" width="14" height="14" as="geometry" />
        </mxCell>
        <mxCell id="ai6ECV2WZNrA2al_3E-Q-155" value="Lon" style="text;html=1;align=center;verticalAlign=middle;resizable=0;points=[];autosize=1;strokeColor=none;fillColor=none;" vertex="1" parent="1">
          <mxGeometry x="715" y="910" width="40" height="30" as="geometry" />
        </mxCell>
        <mxCell id="ai6ECV2WZNrA2al_3E-Q-156" value="Lat" style="text;html=1;align=center;verticalAlign=middle;resizable=0;points=[];autosize=1;strokeColor=none;fillColor=none;" vertex="1" parent="1">
          <mxGeometry x="706" y="932" width="40" height="30" as="geometry" />
        </mxCell>
        <mxCell id="ai6ECV2WZNrA2al_3E-Q-157" value="" style="ellipse;whiteSpace=wrap;html=1;aspect=fixed;fillColor=#FFFFFF;" vertex="1" parent="1">
          <mxGeometry x="701" y="940" width="14" height="14" as="geometry" />
        </mxCell>
        <mxCell id="ai6ECV2WZNrA2al_3E-Q-158" value="" style="ellipse;whiteSpace=wrap;html=1;aspect=fixed;fillColor=#FFFFFF;" vertex="1" parent="1">
          <mxGeometry x="706" y="918" width="14" height="14" as="geometry" />
        </mxCell>
        <mxCell id="ai6ECV2WZNrA2al_3E-Q-162" style="edgeStyle=orthogonalEdgeStyle;rounded=0;orthogonalLoop=1;jettySize=auto;html=1;exitX=1;exitY=0.5;exitDx=0;exitDy=0;entryX=0;entryY=0.5;entryDx=0;entryDy=0;endArrow=none;startFill=0;curved=1;" edge="1" parent="1" source="ai6ECV2WZNrA2al_3E-Q-40" target="ai6ECV2WZNrA2al_3E-Q-158">
          <mxGeometry relative="1" as="geometry" />
        </mxCell>
        <mxCell id="ai6ECV2WZNrA2al_3E-Q-163" style="edgeStyle=orthogonalEdgeStyle;rounded=0;orthogonalLoop=1;jettySize=auto;html=1;exitX=0;exitY=0;exitDx=0;exitDy=0;entryX=0.981;entryY=0.726;entryDx=0;entryDy=0;entryPerimeter=0;endArrow=none;startFill=0;curved=1;" edge="1" parent="1" source="ai6ECV2WZNrA2al_3E-Q-157" target="ai6ECV2WZNrA2al_3E-Q-40">
          <mxGeometry relative="1" as="geometry" />
        </mxCell>
        <mxCell id="ai6ECV2WZNrA2al_3E-Q-165" value="" style="ellipse;whiteSpace=wrap;html=1;aspect=fixed;fillColor=#FFFFFF;" vertex="1" parent="1">
          <mxGeometry x="706" y="894" width="14" height="14" as="geometry" />
        </mxCell>
        <mxCell id="ai6ECV2WZNrA2al_3E-Q-166" value="Utilization" style="text;html=1;align=center;verticalAlign=middle;resizable=0;points=[];autosize=1;strokeColor=none;fillColor=none;" vertex="1" parent="1">
          <mxGeometry x="710" y="886" width="80" height="30" as="geometry" />
        </mxCell>
        <mxCell id="ai6ECV2WZNrA2al_3E-Q-177" style="edgeStyle=orthogonalEdgeStyle;rounded=0;orthogonalLoop=1;jettySize=auto;html=1;exitX=0.924;exitY=0.747;exitDx=0;exitDy=0;entryX=0.5;entryY=0;entryDx=0;entryDy=0;curved=1;exitPerimeter=0;" edge="1" parent="1" source="ai6ECV2WZNrA2al_3E-Q-174" target="ai6ECV2WZNrA2al_3E-Q-67">
          <mxGeometry relative="1" as="geometry" />
        </mxCell>
        <mxCell id="ai6ECV2WZNrA2al_3E-Q-218" style="edgeStyle=orthogonalEdgeStyle;rounded=0;orthogonalLoop=1;jettySize=auto;html=1;exitX=0.355;exitY=0.017;exitDx=0;exitDy=0;entryX=0.5;entryY=1;entryDx=0;entryDy=0;curved=1;endArrow=none;startFill=0;exitPerimeter=0;" edge="1" parent="1" source="ai6ECV2WZNrA2al_3E-Q-174" target="ai6ECV2WZNrA2al_3E-Q-212">
          <mxGeometry relative="1" as="geometry" />
        </mxCell>
        <mxCell id="ai6ECV2WZNrA2al_3E-Q-219" style="edgeStyle=orthogonalEdgeStyle;rounded=0;orthogonalLoop=1;jettySize=auto;html=1;exitX=0.5;exitY=0;exitDx=0;exitDy=0;entryX=0.5;entryY=1;entryDx=0;entryDy=0;curved=1;endArrow=none;startFill=0;" edge="1" parent="1" source="ai6ECV2WZNrA2al_3E-Q-174" target="ai6ECV2WZNrA2al_3E-Q-210">
          <mxGeometry relative="1" as="geometry" />
        </mxCell>
        <mxCell id="ai6ECV2WZNrA2al_3E-Q-220" style="edgeStyle=orthogonalEdgeStyle;rounded=0;orthogonalLoop=1;jettySize=auto;html=1;exitX=0.673;exitY=0.055;exitDx=0;exitDy=0;entryX=0.5;entryY=1;entryDx=0;entryDy=0;curved=1;exitPerimeter=0;endArrow=none;startFill=0;" edge="1" parent="1" source="ai6ECV2WZNrA2al_3E-Q-174" target="ai6ECV2WZNrA2al_3E-Q-211">
          <mxGeometry relative="1" as="geometry">
            <mxPoint x="920" y="190" as="targetPoint" />
          </mxGeometry>
        </mxCell>
        <mxCell id="ai6ECV2WZNrA2al_3E-Q-232" style="edgeStyle=orthogonalEdgeStyle;rounded=0;orthogonalLoop=1;jettySize=auto;html=1;exitX=0.651;exitY=0.036;exitDx=0;exitDy=0;entryX=0.5;entryY=1;entryDx=0;entryDy=0;curved=1;exitPerimeter=0;endArrow=none;startFill=0;" edge="1" parent="1" source="ai6ECV2WZNrA2al_3E-Q-174" target="ai6ECV2WZNrA2al_3E-Q-209">
          <mxGeometry relative="1" as="geometry">
            <mxPoint x="1000" y="140" as="targetPoint" />
            <Array as="points">
              <mxPoint x="910" y="400" />
              <mxPoint x="910" y="240" />
              <mxPoint x="1000" y="240" />
              <mxPoint x="1000" y="80" />
            </Array>
          </mxGeometry>
        </mxCell>
        <mxCell id="ai6ECV2WZNrA2al_3E-Q-258" style="edgeStyle=orthogonalEdgeStyle;rounded=0;orthogonalLoop=1;jettySize=auto;html=1;exitX=0.978;exitY=0.364;exitDx=0;exitDy=0;entryX=0.5;entryY=1;entryDx=0;entryDy=0;exitPerimeter=0;curved=1;endArrow=none;startFill=0;" edge="1" parent="1" source="ai6ECV2WZNrA2al_3E-Q-174" target="ai6ECV2WZNrA2al_3E-Q-253">
          <mxGeometry relative="1" as="geometry">
            <mxPoint x="1100.655737704918" y="406.95081967213116" as="targetPoint" />
            <Array as="points">
              <mxPoint x="1097" y="405" />
            </Array>
          </mxGeometry>
        </mxCell>
        <mxCell id="ai6ECV2WZNrA2al_3E-Q-261" style="edgeStyle=orthogonalEdgeStyle;rounded=0;orthogonalLoop=1;jettySize=auto;html=1;exitX=1;exitY=0.5;exitDx=0;exitDy=0;entryX=0;entryY=0.5;entryDx=0;entryDy=0;curved=1;endArrow=none;startFill=0;" edge="1" parent="1" source="ai6ECV2WZNrA2al_3E-Q-174" target="ai6ECV2WZNrA2al_3E-Q-254">
          <mxGeometry relative="1" as="geometry">
            <Array as="points">
              <mxPoint x="1080" y="407" />
              <mxPoint x="1080" y="347" />
            </Array>
          </mxGeometry>
        </mxCell>
        <mxCell id="ai6ECV2WZNrA2al_3E-Q-262" style="edgeStyle=orthogonalEdgeStyle;rounded=0;orthogonalLoop=1;jettySize=auto;html=1;exitX=1;exitY=0.5;exitDx=0;exitDy=0;entryX=0;entryY=0.5;entryDx=0;entryDy=0;curved=1;endArrow=none;startFill=0;" edge="1" parent="1" source="ai6ECV2WZNrA2al_3E-Q-174" target="ai6ECV2WZNrA2al_3E-Q-255">
          <mxGeometry relative="1" as="geometry">
            <Array as="points">
              <mxPoint x="1060" y="407" />
              <mxPoint x="1060" y="393" />
            </Array>
          </mxGeometry>
        </mxCell>
        <mxCell id="ai6ECV2WZNrA2al_3E-Q-267" style="edgeStyle=orthogonalEdgeStyle;rounded=0;orthogonalLoop=1;jettySize=auto;html=1;exitX=0.976;exitY=0.669;exitDx=0;exitDy=0;entryX=0;entryY=0.5;entryDx=0;entryDy=0;curved=1;exitPerimeter=0;endArrow=none;startFill=0;" edge="1" parent="1" source="ai6ECV2WZNrA2al_3E-Q-174" target="ai6ECV2WZNrA2al_3E-Q-256">
          <mxGeometry relative="1" as="geometry" />
        </mxCell>
        <mxCell id="ai6ECV2WZNrA2al_3E-Q-273" style="edgeStyle=orthogonalEdgeStyle;rounded=0;orthogonalLoop=1;jettySize=auto;html=1;exitX=1.013;exitY=0.249;exitDx=0;exitDy=0;entryX=0.5;entryY=0;entryDx=0;entryDy=0;curved=1;endArrow=none;startFill=0;exitPerimeter=0;" edge="1" parent="1" source="ai6ECV2WZNrA2al_3E-Q-176" target="ai6ECV2WZNrA2al_3E-Q-272">
          <mxGeometry relative="1" as="geometry">
            <Array as="points">
              <mxPoint x="857" y="414" />
              <mxPoint x="857" y="447" />
              <mxPoint x="830" y="447" />
            </Array>
          </mxGeometry>
        </mxCell>
        <mxCell id="ai6ECV2WZNrA2al_3E-Q-274" style="edgeStyle=orthogonalEdgeStyle;rounded=0;orthogonalLoop=1;jettySize=auto;html=1;exitX=0;exitY=1;exitDx=0;exitDy=0;entryX=0.5;entryY=0;entryDx=0;entryDy=0;curved=1;endArrow=none;startFill=0;" edge="1" parent="1" source="ai6ECV2WZNrA2al_3E-Q-174" target="ai6ECV2WZNrA2al_3E-Q-271">
          <mxGeometry relative="1" as="geometry">
            <Array as="points">
              <mxPoint x="852" y="430" />
              <mxPoint x="810" y="430" />
            </Array>
          </mxGeometry>
        </mxCell>
        <mxCell id="ai6ECV2WZNrA2al_3E-Q-277" style="edgeStyle=orthogonalEdgeStyle;rounded=0;orthogonalLoop=1;jettySize=auto;html=1;exitX=0.7;exitY=0.961;exitDx=0;exitDy=0;entryX=0.5;entryY=0;entryDx=0;entryDy=0;exitPerimeter=0;curved=1;endArrow=none;startFill=0;" edge="1" parent="1" source="ai6ECV2WZNrA2al_3E-Q-174" target="ai6ECV2WZNrA2al_3E-Q-276">
          <mxGeometry relative="1" as="geometry">
            <Array as="points">
              <mxPoint x="860" y="447" />
              <mxPoint x="867" y="447" />
            </Array>
          </mxGeometry>
        </mxCell>
        <mxCell id="ai6ECV2WZNrA2al_3E-Q-281" style="edgeStyle=orthogonalEdgeStyle;rounded=0;orthogonalLoop=1;jettySize=auto;html=1;exitX=0.797;exitY=0.928;exitDx=0;exitDy=0;entryX=0.5;entryY=0;entryDx=0;entryDy=0;curved=1;endArrow=none;startFill=0;exitPerimeter=0;" edge="1" parent="1">
          <mxGeometry relative="1" as="geometry">
            <mxPoint x="859.998" y="412.992" as="sourcePoint" />
            <mxPoint x="889.84" y="523.9999999999999" as="targetPoint" />
          </mxGeometry>
        </mxCell>
        <mxCell id="ai6ECV2WZNrA2al_3E-Q-282" style="edgeStyle=orthogonalEdgeStyle;rounded=0;orthogonalLoop=1;jettySize=auto;html=1;exitX=1;exitY=1;exitDx=0;exitDy=0;entryX=0.5;entryY=0;entryDx=0;entryDy=0;curved=1;endArrow=none;startFill=0;" edge="1" parent="1" source="ai6ECV2WZNrA2al_3E-Q-174" target="ai6ECV2WZNrA2al_3E-Q-280">
          <mxGeometry relative="1" as="geometry" />
        </mxCell>
        <mxCell id="ai6ECV2WZNrA2al_3E-Q-293" style="edgeStyle=orthogonalEdgeStyle;rounded=0;orthogonalLoop=1;jettySize=auto;html=1;exitX=1;exitY=0.5;exitDx=0;exitDy=0;entryX=0;entryY=0.5;entryDx=0;entryDy=0;curved=1;endArrow=none;startFill=0;" edge="1" parent="1" source="ai6ECV2WZNrA2al_3E-Q-174" target="ai6ECV2WZNrA2al_3E-Q-286">
          <mxGeometry relative="1" as="geometry" />
        </mxCell>
        <mxCell id="ai6ECV2WZNrA2al_3E-Q-294" style="edgeStyle=orthogonalEdgeStyle;rounded=0;orthogonalLoop=1;jettySize=auto;html=1;exitX=1;exitY=0.5;exitDx=0;exitDy=0;entryX=0;entryY=0.5;entryDx=0;entryDy=0;curved=1;endArrow=none;startFill=0;" edge="1" parent="1" source="ai6ECV2WZNrA2al_3E-Q-174" target="ai6ECV2WZNrA2al_3E-Q-289">
          <mxGeometry relative="1" as="geometry">
            <mxPoint x="1000" y="510" as="targetPoint" />
          </mxGeometry>
        </mxCell>
        <mxCell id="ai6ECV2WZNrA2al_3E-Q-174" value="" style="ellipse;whiteSpace=wrap;html=1;aspect=fixed;fillColor=#FFFFFF;" vertex="1" parent="1">
          <mxGeometry x="850" y="400" width="14" height="14" as="geometry" />
        </mxCell>
        <mxCell id="ai6ECV2WZNrA2al_3E-Q-176" value="Id_Patient" style="text;html=1;align=center;verticalAlign=middle;resizable=0;points=[];autosize=1;strokeColor=none;fillColor=none;" vertex="1" parent="1">
          <mxGeometry x="774" y="406" width="80" height="30" as="geometry" />
        </mxCell>
        <mxCell id="ai6ECV2WZNrA2al_3E-Q-209" value="" style="ellipse;whiteSpace=wrap;html=1;aspect=fixed;fillColor=#FFFFFF;" vertex="1" parent="1">
          <mxGeometry x="983" y="66" width="14" height="14" as="geometry" />
        </mxCell>
        <mxCell id="ai6ECV2WZNrA2al_3E-Q-210" value="" style="ellipse;whiteSpace=wrap;html=1;aspect=fixed;fillColor=#FFFFFF;" vertex="1" parent="1">
          <mxGeometry x="860" y="170" width="14" height="14" as="geometry" />
        </mxCell>
        <mxCell id="ai6ECV2WZNrA2al_3E-Q-211" value="" style="ellipse;whiteSpace=wrap;html=1;aspect=fixed;fillColor=#FFFFFF;" vertex="1" parent="1">
          <mxGeometry x="916" y="170" width="14" height="14" as="geometry" />
        </mxCell>
        <mxCell id="ai6ECV2WZNrA2al_3E-Q-212" value="" style="ellipse;whiteSpace=wrap;html=1;aspect=fixed;fillColor=#FFFFFF;" vertex="1" parent="1">
          <mxGeometry x="820" y="170" width="14" height="14" as="geometry" />
        </mxCell>
        <mxCell id="ai6ECV2WZNrA2al_3E-Q-213" value="Last_Name" style="text;html=1;align=center;verticalAlign=middle;resizable=0;points=[];autosize=1;strokeColor=none;fillColor=none;" vertex="1" parent="1">
          <mxGeometry x="764" y="140" width="80" height="30" as="geometry" />
        </mxCell>
        <mxCell id="ai6ECV2WZNrA2al_3E-Q-214" value="Gender" style="text;html=1;align=center;verticalAlign=middle;resizable=0;points=[];autosize=1;strokeColor=none;fillColor=none;" vertex="1" parent="1">
          <mxGeometry x="914" y="140" width="60" height="30" as="geometry" />
        </mxCell>
        <mxCell id="ai6ECV2WZNrA2al_3E-Q-217" value="First_Name" style="text;html=1;align=center;verticalAlign=middle;resizable=0;points=[];autosize=1;strokeColor=none;fillColor=none;" vertex="1" parent="1">
          <mxGeometry x="834" y="140" width="90" height="30" as="geometry" />
        </mxCell>
        <mxCell id="ai6ECV2WZNrA2al_3E-Q-221" value="" style="ellipse;whiteSpace=wrap;html=1;aspect=fixed;fillColor=#FFFFFF;" vertex="1" parent="1">
          <mxGeometry x="1077" y="66" width="14" height="14" as="geometry" />
        </mxCell>
        <mxCell id="ai6ECV2WZNrA2al_3E-Q-222" value="" style="ellipse;whiteSpace=wrap;html=1;aspect=fixed;fillColor=#FFFFFF;" vertex="1" parent="1">
          <mxGeometry x="1026" y="66" width="14" height="14" as="geometry" />
        </mxCell>
        <mxCell id="ai6ECV2WZNrA2al_3E-Q-223" value="" style="ellipse;whiteSpace=wrap;html=1;aspect=fixed;fillColor=#FFFFFF;" vertex="1" parent="1">
          <mxGeometry x="1120" y="66" width="14" height="14" as="geometry" />
        </mxCell>
        <mxCell id="ai6ECV2WZNrA2al_3E-Q-226" value="Birthdate" style="text;html=1;align=center;verticalAlign=middle;resizable=0;points=[];autosize=1;strokeColor=none;fillColor=none;" vertex="1" parent="1">
          <mxGeometry x="930" y="40" width="70" height="30" as="geometry" />
        </mxCell>
        <mxCell id="ai6ECV2WZNrA2al_3E-Q-228" value="Deathdate" style="text;html=1;align=center;verticalAlign=middle;resizable=0;points=[];autosize=1;strokeColor=none;fillColor=none;" vertex="1" parent="1">
          <mxGeometry x="993" y="40" width="80" height="30" as="geometry" />
        </mxCell>
        <mxCell id="ai6ECV2WZNrA2al_3E-Q-229" value="SSN" style="text;html=1;align=center;verticalAlign=middle;resizable=0;points=[];autosize=1;strokeColor=none;fillColor=none;" vertex="1" parent="1">
          <mxGeometry x="1060" y="40" width="50" height="30" as="geometry" />
        </mxCell>
        <mxCell id="ai6ECV2WZNrA2al_3E-Q-231" value="Drivers" style="text;html=1;align=center;verticalAlign=middle;resizable=0;points=[];autosize=1;strokeColor=none;fillColor=none;" vertex="1" parent="1">
          <mxGeometry x="1100" y="38" width="60" height="30" as="geometry" />
        </mxCell>
        <mxCell id="ai6ECV2WZNrA2al_3E-Q-233" style="edgeStyle=orthogonalEdgeStyle;rounded=0;orthogonalLoop=1;jettySize=auto;html=1;exitX=1;exitY=0;exitDx=0;exitDy=0;entryX=0.5;entryY=1;entryDx=0;entryDy=0;curved=1;endArrow=none;startFill=0;" edge="1" parent="1" source="ai6ECV2WZNrA2al_3E-Q-174" target="ai6ECV2WZNrA2al_3E-Q-222">
          <mxGeometry relative="1" as="geometry">
            <mxPoint x="1000" y="90" as="targetPoint" />
            <mxPoint x="871" y="411" as="sourcePoint" />
            <Array as="points">
              <mxPoint x="862" y="400" />
              <mxPoint x="920" y="400" />
              <mxPoint x="920" y="250" />
              <mxPoint x="1030" y="250" />
              <mxPoint x="1030" y="80" />
            </Array>
          </mxGeometry>
        </mxCell>
        <mxCell id="ai6ECV2WZNrA2al_3E-Q-234" style="edgeStyle=orthogonalEdgeStyle;rounded=0;orthogonalLoop=1;jettySize=auto;html=1;exitX=1;exitY=0;exitDx=0;exitDy=0;entryX=0.5;entryY=1;entryDx=0;entryDy=0;curved=1;endArrow=none;startFill=0;" edge="1" parent="1" source="ai6ECV2WZNrA2al_3E-Q-174" target="ai6ECV2WZNrA2al_3E-Q-221">
          <mxGeometry relative="1" as="geometry">
            <mxPoint x="1103" y="97" as="targetPoint" />
            <mxPoint x="974" y="418" as="sourcePoint" />
            <Array as="points">
              <mxPoint x="1023" y="402" />
              <mxPoint x="1023" y="257" />
              <mxPoint x="1080" y="257" />
              <mxPoint x="1080" y="80" />
            </Array>
          </mxGeometry>
        </mxCell>
        <mxCell id="ai6ECV2WZNrA2al_3E-Q-236" style="edgeStyle=orthogonalEdgeStyle;rounded=0;orthogonalLoop=1;jettySize=auto;html=1;exitX=0.947;exitY=0.277;exitDx=0;exitDy=0;entryX=0.5;entryY=1;entryDx=0;entryDy=0;curved=1;endArrow=none;startFill=0;exitPerimeter=0;" edge="1" parent="1" source="ai6ECV2WZNrA2al_3E-Q-174" target="ai6ECV2WZNrA2al_3E-Q-223">
          <mxGeometry relative="1" as="geometry">
            <mxPoint x="1094" y="90" as="targetPoint" />
            <mxPoint x="872" y="412" as="sourcePoint" />
            <Array as="points">
              <mxPoint x="863" y="400" />
              <mxPoint x="1030" y="400" />
              <mxPoint x="1030" y="267" />
              <mxPoint x="1090" y="267" />
              <mxPoint x="1090" y="90" />
              <mxPoint x="1127" y="90" />
            </Array>
          </mxGeometry>
        </mxCell>
        <mxCell id="ai6ECV2WZNrA2al_3E-Q-247" style="edgeStyle=orthogonalEdgeStyle;rounded=0;orthogonalLoop=1;jettySize=auto;html=1;exitX=0.5;exitY=1;exitDx=0;exitDy=0;entryX=0.234;entryY=0.075;entryDx=0;entryDy=0;endArrow=none;startFill=0;curved=1;entryPerimeter=0;" edge="1" parent="1" source="ai6ECV2WZNrA2al_3E-Q-243" target="ai6ECV2WZNrA2al_3E-Q-174">
          <mxGeometry relative="1" as="geometry">
            <Array as="points">
              <mxPoint x="789" y="302" />
              <mxPoint x="830" y="302" />
              <mxPoint x="830" y="390" />
              <mxPoint x="853" y="390" />
            </Array>
          </mxGeometry>
        </mxCell>
        <mxCell id="ai6ECV2WZNrA2al_3E-Q-243" value="" style="ellipse;whiteSpace=wrap;html=1;aspect=fixed;fillColor=#FFFFFF;" vertex="1" parent="1">
          <mxGeometry x="782" y="190" width="14" height="14" as="geometry" />
        </mxCell>
        <mxCell id="ai6ECV2WZNrA2al_3E-Q-248" style="edgeStyle=orthogonalEdgeStyle;rounded=0;orthogonalLoop=1;jettySize=auto;html=1;exitX=1;exitY=1;exitDx=0;exitDy=0;entryX=0;entryY=0;entryDx=0;entryDy=0;curved=1;endArrow=none;startFill=0;" edge="1" parent="1" source="ai6ECV2WZNrA2al_3E-Q-244" target="ai6ECV2WZNrA2al_3E-Q-174">
          <mxGeometry relative="1" as="geometry">
            <Array as="points">
              <mxPoint x="762" y="252" />
              <mxPoint x="790" y="252" />
              <mxPoint x="790" y="390" />
              <mxPoint x="852" y="390" />
            </Array>
          </mxGeometry>
        </mxCell>
        <mxCell id="ai6ECV2WZNrA2al_3E-Q-244" value="" style="ellipse;whiteSpace=wrap;html=1;aspect=fixed;fillColor=#FFFFFF;" vertex="1" parent="1">
          <mxGeometry x="750" y="212" width="14" height="14" as="geometry" />
        </mxCell>
        <mxCell id="ai6ECV2WZNrA2al_3E-Q-246" value="Passport" style="text;html=1;align=center;verticalAlign=middle;resizable=0;points=[];autosize=1;strokeColor=none;fillColor=none;" vertex="1" parent="1">
          <mxGeometry x="720" y="182" width="70" height="30" as="geometry" />
        </mxCell>
        <mxCell id="ai6ECV2WZNrA2al_3E-Q-249" value="Prefix" style="text;html=1;align=center;verticalAlign=middle;resizable=0;points=[];autosize=1;strokeColor=none;fillColor=none;" vertex="1" parent="1">
          <mxGeometry x="707" y="204" width="50" height="30" as="geometry" />
        </mxCell>
        <mxCell id="ai6ECV2WZNrA2al_3E-Q-251" style="edgeStyle=orthogonalEdgeStyle;rounded=0;orthogonalLoop=1;jettySize=auto;html=1;exitX=1;exitY=1;exitDx=0;exitDy=0;entryX=0;entryY=0;entryDx=0;entryDy=0;curved=1;endArrow=none;startFill=0;" edge="1" parent="1" source="ai6ECV2WZNrA2al_3E-Q-250" target="ai6ECV2WZNrA2al_3E-Q-174">
          <mxGeometry relative="1" as="geometry">
            <mxPoint x="850" y="400" as="targetPoint" />
            <Array as="points">
              <mxPoint x="770" y="262" />
              <mxPoint x="770" y="402" />
            </Array>
          </mxGeometry>
        </mxCell>
        <mxCell id="ai6ECV2WZNrA2al_3E-Q-250" value="" style="ellipse;whiteSpace=wrap;html=1;aspect=fixed;fillColor=#FFFFFF;" vertex="1" parent="1">
          <mxGeometry x="743" y="250" width="14" height="14" as="geometry" />
        </mxCell>
        <mxCell id="ai6ECV2WZNrA2al_3E-Q-252" value="Suffix" style="text;html=1;align=center;verticalAlign=middle;resizable=0;points=[];autosize=1;strokeColor=none;fillColor=none;" vertex="1" parent="1">
          <mxGeometry x="701" y="234" width="50" height="30" as="geometry" />
        </mxCell>
        <mxCell id="ai6ECV2WZNrA2al_3E-Q-253" value="" style="ellipse;whiteSpace=wrap;html=1;aspect=fixed;fillColor=#FFFFFF;" vertex="1" parent="1">
          <mxGeometry x="1090" y="300" width="14" height="14" as="geometry" />
        </mxCell>
        <mxCell id="ai6ECV2WZNrA2al_3E-Q-254" value="" style="ellipse;whiteSpace=wrap;html=1;aspect=fixed;fillColor=#FFFFFF;" vertex="1" parent="1">
          <mxGeometry x="1120" y="340" width="14" height="14" as="geometry" />
        </mxCell>
        <mxCell id="ai6ECV2WZNrA2al_3E-Q-255" value="" style="ellipse;whiteSpace=wrap;html=1;aspect=fixed;fillColor=#FFFFFF;" vertex="1" parent="1">
          <mxGeometry x="1120" y="386" width="14" height="14" as="geometry" />
        </mxCell>
        <mxCell id="ai6ECV2WZNrA2al_3E-Q-256" value="" style="ellipse;whiteSpace=wrap;html=1;aspect=fixed;fillColor=#FFFFFF;" vertex="1" parent="1">
          <mxGeometry x="1082" y="414" width="14" height="14" as="geometry" />
        </mxCell>
        <mxCell id="ai6ECV2WZNrA2al_3E-Q-257" value="Maiden" style="text;html=1;align=center;verticalAlign=middle;resizable=0;points=[];autosize=1;strokeColor=none;fillColor=none;" vertex="1" parent="1">
          <mxGeometry x="1080" y="274" width="60" height="30" as="geometry" />
        </mxCell>
        <mxCell id="ai6ECV2WZNrA2al_3E-Q-260" value="Marital" style="text;html=1;align=center;verticalAlign=middle;resizable=0;points=[];autosize=1;strokeColor=none;fillColor=none;" vertex="1" parent="1">
          <mxGeometry x="1124" y="324" width="60" height="30" as="geometry" />
        </mxCell>
        <mxCell id="ai6ECV2WZNrA2al_3E-Q-263" value="Birthplace" style="text;html=1;align=center;verticalAlign=middle;resizable=0;points=[];autosize=1;strokeColor=none;fillColor=none;" vertex="1" parent="1">
          <mxGeometry x="1090" y="361" width="80" height="30" as="geometry" />
        </mxCell>
        <mxCell id="ai6ECV2WZNrA2al_3E-Q-266" value="Address" style="text;html=1;align=center;verticalAlign=middle;resizable=0;points=[];autosize=1;strokeColor=none;fillColor=none;" vertex="1" parent="1">
          <mxGeometry x="1087" y="406" width="70" height="30" as="geometry" />
        </mxCell>
        <mxCell id="ai6ECV2WZNrA2al_3E-Q-269" value="Zip_Code" style="text;html=1;align=center;verticalAlign=middle;resizable=0;points=[];autosize=1;strokeColor=none;fillColor=none;" vertex="1" parent="1">
          <mxGeometry x="751" y="490" width="80" height="30" as="geometry" />
        </mxCell>
        <mxCell id="ai6ECV2WZNrA2al_3E-Q-270" value="Lat" style="text;html=1;align=center;verticalAlign=middle;resizable=0;points=[];autosize=1;strokeColor=none;fillColor=none;" vertex="1" parent="1">
          <mxGeometry x="811" y="490" width="40" height="30" as="geometry" />
        </mxCell>
        <mxCell id="ai6ECV2WZNrA2al_3E-Q-271" value="" style="ellipse;whiteSpace=wrap;html=1;aspect=fixed;fillColor=#FFFFFF;" vertex="1" parent="1">
          <mxGeometry x="782" y="480" width="14" height="14" as="geometry" />
        </mxCell>
        <mxCell id="ai6ECV2WZNrA2al_3E-Q-272" value="" style="ellipse;whiteSpace=wrap;html=1;aspect=fixed;fillColor=#FFFFFF;" vertex="1" parent="1">
          <mxGeometry x="823" y="480" width="14" height="14" as="geometry" />
        </mxCell>
        <mxCell id="ai6ECV2WZNrA2al_3E-Q-275" value="Lon" style="text;html=1;align=center;verticalAlign=middle;resizable=0;points=[];autosize=1;strokeColor=none;fillColor=none;" vertex="1" parent="1">
          <mxGeometry x="844" y="490" width="40" height="30" as="geometry" />
        </mxCell>
        <mxCell id="ai6ECV2WZNrA2al_3E-Q-276" value="" style="ellipse;whiteSpace=wrap;html=1;aspect=fixed;fillColor=#FFFFFF;" vertex="1" parent="1">
          <mxGeometry x="860" y="480" width="14" height="14" as="geometry" />
        </mxCell>
        <mxCell id="ai6ECV2WZNrA2al_3E-Q-279" value="" style="ellipse;whiteSpace=wrap;html=1;aspect=fixed;fillColor=#FFFFFF;" vertex="1" parent="1">
          <mxGeometry x="884" y="524" width="14" height="14" as="geometry" />
        </mxCell>
        <mxCell id="ai6ECV2WZNrA2al_3E-Q-280" value="" style="ellipse;whiteSpace=wrap;html=1;aspect=fixed;fillColor=#FFFFFF;" vertex="1" parent="1">
          <mxGeometry x="916" y="546" width="14" height="14" as="geometry" />
        </mxCell>
        <mxCell id="ai6ECV2WZNrA2al_3E-Q-283" value="Healthcare_expenses" style="text;html=1;align=center;verticalAlign=middle;resizable=0;points=[];autosize=1;strokeColor=none;fillColor=none;" vertex="1" parent="1">
          <mxGeometry x="755" y="516" width="140" height="30" as="geometry" />
        </mxCell>
        <mxCell id="ai6ECV2WZNrA2al_3E-Q-284" value="Healthcare_coverage" style="text;html=1;align=center;verticalAlign=middle;resizable=0;points=[];autosize=1;strokeColor=none;fillColor=none;" vertex="1" parent="1">
          <mxGeometry x="784" y="538" width="140" height="30" as="geometry" />
        </mxCell>
        <mxCell id="ai6ECV2WZNrA2al_3E-Q-285" style="edgeStyle=orthogonalEdgeStyle;rounded=0;orthogonalLoop=1;jettySize=auto;html=1;exitX=1;exitY=0.5;exitDx=0;exitDy=0;entryX=0;entryY=0.5;entryDx=0;entryDy=0;endArrow=none;startFill=0;" edge="1" parent="1" source="ai6ECV2WZNrA2al_3E-Q-286" target="ai6ECV2WZNrA2al_3E-Q-287">
          <mxGeometry relative="1" as="geometry" />
        </mxCell>
        <mxCell id="ai6ECV2WZNrA2al_3E-Q-286" value="" style="ellipse;whiteSpace=wrap;html=1;aspect=fixed;fillColor=#FFFFFF;" vertex="1" parent="1">
          <mxGeometry x="1100" y="460" width="14" height="14" as="geometry" />
        </mxCell>
        <mxCell id="ai6ECV2WZNrA2al_3E-Q-287" value="" style="ellipse;whiteSpace=wrap;html=1;aspect=fixed;fillColor=#FFFFFF;" vertex="1" parent="1">
          <mxGeometry x="1170" y="460" width="14" height="14" as="geometry" />
        </mxCell>
        <mxCell id="ai6ECV2WZNrA2al_3E-Q-288" style="edgeStyle=orthogonalEdgeStyle;rounded=0;orthogonalLoop=1;jettySize=auto;html=1;exitX=1;exitY=0.5;exitDx=0;exitDy=0;entryX=0;entryY=0.5;entryDx=0;entryDy=0;endArrow=none;startFill=0;" edge="1" parent="1" source="ai6ECV2WZNrA2al_3E-Q-289" target="ai6ECV2WZNrA2al_3E-Q-290">
          <mxGeometry relative="1" as="geometry" />
        </mxCell>
        <mxCell id="ai6ECV2WZNrA2al_3E-Q-289" value="" style="ellipse;whiteSpace=wrap;html=1;aspect=fixed;fillColor=#FFFFFF;" vertex="1" parent="1">
          <mxGeometry x="1100" y="510" width="14" height="14" as="geometry" />
        </mxCell>
        <mxCell id="ai6ECV2WZNrA2al_3E-Q-290" value="" style="ellipse;whiteSpace=wrap;html=1;aspect=fixed;fillColor=#FFFFFF;" vertex="1" parent="1">
          <mxGeometry x="1170" y="510" width="14" height="14" as="geometry" />
        </mxCell>
        <mxCell id="ai6ECV2WZNrA2al_3E-Q-291" value="Id_Race" style="text;html=1;align=center;verticalAlign=middle;resizable=0;points=[];autosize=1;strokeColor=none;fillColor=none;" vertex="1" parent="1">
          <mxGeometry x="1077" y="436" width="70" height="30" as="geometry" />
        </mxCell>
        <mxCell id="ai6ECV2WZNrA2al_3E-Q-292" value="Name" style="text;html=1;align=center;verticalAlign=middle;resizable=0;points=[];autosize=1;strokeColor=none;fillColor=none;" vertex="1" parent="1">
          <mxGeometry x="1152" y="436" width="60" height="30" as="geometry" />
        </mxCell>
        <mxCell id="ai6ECV2WZNrA2al_3E-Q-295" value="Id_Ethnicity" style="text;html=1;align=center;verticalAlign=middle;resizable=0;points=[];autosize=1;strokeColor=none;fillColor=none;" vertex="1" parent="1">
          <mxGeometry x="1065" y="478" width="90" height="30" as="geometry" />
        </mxCell>
        <mxCell id="ai6ECV2WZNrA2al_3E-Q-296" value="Name" style="text;html=1;align=center;verticalAlign=middle;resizable=0;points=[];autosize=1;strokeColor=none;fillColor=none;" vertex="1" parent="1">
          <mxGeometry x="1152" y="478" width="60" height="30" as="geometry" />
        </mxCell>
      </root>
    </mxGraphModel>
  </diagram>
</mxfile>
